<svg xmlns="http://www.w3.org/2000/svg" xmlns:xlink="http://www.w3.org/1999/xlink" style="vertical-align:-2.63ex" width="23.375ex" height="6.384ex" viewBox="0 -1616.6 10064.3 2748.8"><defs><path id="a" stroke-width="1" d="M208 74q0-24 46-28 18 0 18-11 0-1-2-13-3-14-6-18t-13-4h-12q-10 0-34 1t-64 1Q70 2 50 0h-8q-7 7-7 11 2 27 13 35h14q70 3 102 50 6 6 181 305t178 303q7 12 24 12h25q6-9 6-10l28-323q28-323 30-326 5-11 65-11 25 0 25-10 0-2-3-14-3-15-5-18t-14-4h-14q-11 0-39 1t-73 1q-94 0-123-2h-12q-6 6-6 9t2 18q4 13 6 16l4 3h20q54 3 64 17l-12 150H283l-34-58q-41-69-41-81zm308 186q0 11-12 156t-14 146l-27-43q-16-27-63-107l-90-152 103-1q103 0 103 1z"/><path id="b" stroke-width="1" d="M56 347q0 13 14 20h637q15-8 15-20 0-11-14-19l-318-1H72q-16 5-16 20zm0-194q0 15 16 20h636q14-10 14-20 0-13-15-20H70q-14 7-14 20z"/><path id="d" stroke-width="1" d="M33 157q0 101 76 192t171 92q51 0 90-49 16 30 46 30 13 0 23-8t10-20q0-13-37-160T374 68q0-25 7-33t21-9q9 1 20 9 21 20 41 96 6 20 10 21 2 1 10 1h4q19 0 19-9 0-6-5-27t-20-54-32-50Q436 0 417-8q-8-2-24-2-34 0-57 15t-30 31l-6 15q-1 1-4-1l-4-4q-59-56-120-56-55 0-97 40T33 157zm318 171q0 6-5 22t-23 35-46 20q-35 0-67-31t-50-81q-29-79-41-164v-11q0-8-1-12 0-45 18-62t43-18q38 0 75 33t44 51q2 4 27 107t26 111z"/><path id="e" stroke-width="1" d="M213 578l-13-5q-14-5-40-10t-58-7H83v46h19q47 2 87 15t56 24 28 22q2 3 12 3 9 0 17-6V361l1-300q7-7 12-9t24-4 62-2h26V0h-11q-21 3-159 3-136 0-157-3H88v46h64q16 0 25 1t16 3 8 2 6 5 6 4v517z"/><path id="f" stroke-width="1" d="M78 35v25l16 43 43 18q28 0 50-25t23-88q0-35-9-68t-21-57-26-41-24-27-13-9q-4 0-13 9t-9 13q0 4 11 16t25 30 26 50 16 73V9l-1-1q-2-1-5-2t-6-3-9-2-12-1q-27 0-44 17z"/><path id="g" stroke-width="1" d="M109 429q-27 0-43 18t-16 44q0 71 53 123t132 52q91 0 152-56t62-145q0-43-20-82t-48-68-80-74q-36-31-100-92l-59-56 76-1q157 0 167 5 7 2 24 89v3h40v-3q-1-3-13-91T421 3V0H50v31q0 7 6 15t30 35q29 32 50 56 9 10 34 37t34 37 29 33 28 34 23 30 21 32 15 29 13 32 7 30 3 33q0 63-34 109t-97 46q-33 0-58-17t-35-33-10-19q0-1 5-1 18 0 37-14t19-46q0-25-16-42t-45-18z"/><path id="h" stroke-width="1" d="M127 463q-27 0-42 17t-16 44q0 55 48 98t116 43q35 0 44-1 74-12 113-53t40-89q0-52-34-101t-94-71l-3-2q0-1 9-3t29-9 38-21q82-53 82-140 0-79-62-138T238-22q-80 0-138 43T42 130q0 28 18 45t45 18q28 0 46-18t18-45q0-11-3-20t-7-16-11-12-12-8-10-4-8-3l-4-1q51-45 124-45 55 0 83 53 17 33 17 101v20q0 95-64 127-15 6-61 7l-42 1-3 2q-2 3-2 16 0 18 8 18 28 0 58 5 34 5 62 42t28 112v8q0 57-35 79-22 14-47 14-32 0-59-11t-38-23-11-12h3q3-1 8-2t10-5 12-7 10-11 8-15 3-20q0-22-14-39t-45-18z"/><path id="c" stroke-width="1" d="M247-949v2399h269v-62H309V-887h207v-62H247z"/><path id="i" stroke-width="1" d="M11 1388v62h269V-949H11v62h207v2275H11z"/></defs><g fill="currentColor" stroke="currentColor" stroke-width="0" transform="scale(1 -1)"><use xlink:href="#a"/><use x="1028" xlink:href="#b"/><g transform="translate(2084)"><use xlink:href="#c"/><g transform="translate(681 738)"><use xlink:href="#d"/><g transform="matrix(.707 0 0 .707 529 -150)"><use xlink:href="#e"/><use x="500" xlink:href="#f"/><use x="779" xlink:href="#e"/></g></g><g transform="translate(681 -750)"><use xlink:href="#d"/><g transform="matrix(.707 0 0 .707 529 -150)"><use xlink:href="#g"/><use x="500" xlink:href="#f"/><use x="779" xlink:href="#e"/></g></g><g transform="translate(3215 738)"><use xlink:href="#d"/><g transform="matrix(.707 0 0 .707 529 -150)"><use xlink:href="#e"/><use x="500" xlink:href="#f"/><use x="779" xlink:href="#g"/></g></g><g transform="translate(3215 -750)"><use xlink:href="#d"/><g transform="matrix(.707 0 0 .707 529 -150)"><use xlink:href="#g"/><use x="500" xlink:href="#f"/><use x="779" xlink:href="#g"/></g></g><g><g transform="translate(5749 738)"><use xlink:href="#d"/><g transform="matrix(.707 0 0 .707 529 -150)"><use xlink:href="#e"/><use x="500" xlink:href="#f"/><use x="779" xlink:href="#h"/></g></g><g transform="translate(5749 -750)"><use xlink:href="#d"/><g transform="matrix(.707 0 0 .707 529 -150)"><use xlink:href="#g"/><use x="500" xlink:href="#f"/><use x="779" xlink:href="#h"/></g></g></g><use x="7451" y="-1" xlink:href="#i"/></g></g></svg>