<svg xmlns="http://www.w3.org/2000/svg" xmlns:xlink="http://www.w3.org/1999/xlink" style="vertical-align:-4.38ex" width="17.691ex" height="9.884ex" viewBox="0 -2370 7617.1 4255.7"><defs><path id="j" stroke-width="1" d="M127 463q-27 0-42 17t-16 44q0 55 48 98t116 43q35 0 44-1 74-12 113-53t40-89q0-52-34-101t-94-71l-3-2q0-1 9-3t29-9 38-21q82-53 82-140 0-79-62-138T238-22q-80 0-138 43T42 130q0 28 18 45t45 18q28 0 46-18t18-45q0-11-3-20t-7-16-11-12-12-8-10-4-8-3l-4-1q51-45 124-45 55 0 83 53 17 33 17 101v20q0 95-64 127-15 6-61 7l-42 1-3 2q-2 3-2 16 0 18 8 18 28 0 58 5 34 5 62 42t28 112v8q0 57-35 79-22 14-47 14-32 0-59-11t-38-23-11-12h3q3-1 8-2t10-5 12-7 10-11 8-15 3-20q0-22-14-39t-45-18z"/><path id="a" stroke-width="1" d="M231 637q-27 0-32 1t-5 11q0 27 11 33 1 1 130 1 259 0 273-2 63-10 105-45t43-92q0-64-58-115t-133-69l-10-3q64-9 105-46t42-92q0-73-72-141T453 1q-7-1-211-1Q42 0 39 2q-4 3-4 8 0 7 2 14 5 19 10 21 4 1 15 1h6q27 0 60 3 14 3 19 12 3 4 72 278t69 289q0 7-57 9zm418-93q0 30-15 56t-49 34q-7 2-92 3h-42q-22 0-35-1h-13q-15-1-19-10-2-4-32-120 0-3-1-6l-31-126h81q81 0 93 2 60 10 107 58t48 110zm-54-315q0 44-23 73t-60 34q-6 1-83 1-118 0-119-1 0-2-17-73t-35-141l-18-70q0-4 12-4t81-2q89 0 96 1 62 7 114 58t52 124z"/><path id="f" stroke-width="1" d="M73 647q0 10 4 23t12 13q1 0 72 5t73 6q12 0 12-9t-34-143q-8-34-17-70t-15-54l-4-19q0-3 6 3 49 40 101 40 62 0 100-46t39-116q0-111-79-201T173-11q-50 0-91 38T40 150v9q0 21 8 58t49 197q50 197 50 209t-38 14H83q-3 0-7 3t-3 7zm263-322v6q0 74-61 74-17 0-35-8t-33-21-26-24-18-22l-6-8-21-86q-22-86-22-122 0-48 24-72 16-16 40-16 33 0 67 32 25 23 40 56t33 105q18 72 18 106z"/><path id="g" stroke-width="1" d="M213 578l-13-5q-14-5-40-10t-58-7H83v46h19q47 2 87 15t56 24 28 22q2 3 12 3 9 0 17-6V361l1-300q7-7 12-9t24-4 62-2h26V0h-11q-21 3-159 3-136 0-157-3H88v46h64q16 0 25 1t16 3 8 2 6 5 6 4v517z"/><path id="h" stroke-width="1" d="M78 35v25l16 43 43 18q28 0 50-25t23-88q0-35-9-68t-21-57-26-41-24-27-13-9q-4 0-13 9t-9 13q0 4 11 16t25 30 26 50 16 73V9l-1-1q-2-1-5-2t-6-3-9-2-12-1q-27 0-44 17z"/><path id="i" stroke-width="1" d="M109 429q-27 0-43 18t-16 44q0 71 53 123t132 52q91 0 152-56t62-145q0-43-20-82t-48-68-80-74q-36-31-100-92l-59-56 76-1q157 0 167 5 7 2 24 89v3h40v-3q-1-3-13-91T421 3V0H50v31q0 7 6 15t30 35q29 32 50 56 9 10 34 37t34 37 29 33 28 34 23 30 21 32 15 29 13 32 7 30 3 33q0 63-34 109t-97 46q-33 0-58-17t-35-33-10-19q0-1 5-1 18 0 37-14t19-46q0-25-16-42t-45-18z"/><path id="b" stroke-width="1" d="M56 347q0 13 14 20h637q15-8 15-20 0-11-14-19l-318-1H72q-16 5-16 20zm0-194q0 15 16 20h636q14-10 14-20 0-13-15-20H70q-14 7-14 20z"/><path id="c" stroke-width="1" d="M319-645v1799h347v-84H403V-645h-84z"/><path id="e" stroke-width="1" d="M319-644v1799h84V-560h263v-84H319z"/><path id="d" stroke-width="1" d="M319 0v602h84V0h-84z"/><path id="k" stroke-width="1" d="M0 1070v84h347V-645h-84v1715H0z"/><path id="m" stroke-width="1" d="M263-560v1715h84V-644H0v84h263z"/><path id="l" stroke-width="1" d="M263 0v602h84V0h-84z"/></defs><g fill="currentColor" stroke="currentColor" stroke-width="0" transform="scale(1 -1)"><use xlink:href="#a"/><use x="1037" xlink:href="#b"/><g transform="translate(2093 2282)"><use y="-1155" xlink:href="#c"/><use transform="matrix(1 0 0 .9334 0 -2313.845)" xlink:href="#d"/><use y="-3421" xlink:href="#e"/></g><g transform="translate(2913 1482)"><use xlink:href="#f"/><g transform="matrix(.707 0 0 .707 429 -150)"><use xlink:href="#g"/><use x="500" xlink:href="#h"/><use x="779" xlink:href="#g"/></g></g><g transform="translate(2913 -6)"><use xlink:href="#f"/><g transform="matrix(.707 0 0 .707 429 -150)"><use xlink:href="#i"/><use x="500" xlink:href="#h"/><use x="779" xlink:href="#g"/></g></g><g transform="translate(2913 -1495)"><use xlink:href="#f"/><g transform="matrix(.707 0 0 .707 429 -150)"><use xlink:href="#j"/><use x="500" xlink:href="#h"/><use x="779" xlink:href="#g"/></g></g><g><g transform="translate(5347 1482)"><use xlink:href="#f"/><g transform="matrix(.707 0 0 .707 429 -150)"><use xlink:href="#g"/><use x="500" xlink:href="#h"/><use x="779" xlink:href="#i"/></g></g><g transform="translate(5347 -6)"><use xlink:href="#f"/><g transform="matrix(.707 0 0 .707 429 -150)"><use xlink:href="#i"/><use x="500" xlink:href="#h"/><use x="779" xlink:href="#i"/></g></g><g transform="translate(5347 -1495)"><use xlink:href="#f"/><g transform="matrix(.707 0 0 .707 429 -150)"><use xlink:href="#j"/><use x="500" xlink:href="#h"/><use x="779" xlink:href="#i"/></g></g></g><g transform="translate(6949 2282)"><use y="-1155" xlink:href="#k"/><use transform="matrix(1 0 0 .9334 0 -2313.845)" xlink:href="#l"/><use y="-3421" xlink:href="#m"/></g></g></svg>