<svg xmlns="http://www.w3.org/2000/svg" xmlns:xlink="http://www.w3.org/1999/xlink" style="vertical-align:-4.255ex" width="71.4ex" height="9.634ex" viewBox="0 -2316.2 30741.5 4148.1"><defs><path id="l" stroke-width="1" d="M56 237v13l14 20h299v150l1 150q10 13 19 13 13 0 20-15V270h298q15-8 15-20t-15-20H409V-68q-8-14-18-14h-4q-12 0-18 14v298H70q-14 7-14 20z"/><path id="a" stroke-width="1" d="M50 252q0 115 67 221t169 168 204 63q90 0 143-51 9-10 15-17t8-10l1-3q3 0 27 26 7 6 15 14t16 16 10 11l15 15h6q14 0 14-7 0-4-32-137-36-139-36-140-2-5-5-6t-18-2h-16q-6 6-6 9 0 1 1 7t2 20 1 32q0 71-32 124t-109 54q-26 0-56-7t-72-24-83-56-73-93q-32-57-51-133t-19-124q0-114 76-164 48-34 118-34 91 0 162 68t94 148q4 13 6 15t16 2q20 0 20-9 0-5-1-9-29-107-124-184T319-22q-113 0-191 75T50 252z"/><path id="c" stroke-width="1" d="M208 74q0-24 46-28 18 0 18-11 0-1-2-13-3-14-6-18t-13-4h-12q-10 0-34 1t-64 1Q70 2 50 0h-8q-7 7-7 11 2 27 13 35h14q70 3 102 50 6 6 181 305t178 303q7 12 24 12h25q6-9 6-10l28-323q28-323 30-326 5-11 65-11 25 0 25-10 0-2-3-14-3-15-5-18t-14-4h-14q-11 0-39 1t-73 1q-94 0-123-2h-12q-6 6-6 9t2 18q4 13 6 16l4 3h20q54 3 64 17l-12 150H283l-34-58q-41-69-41-81zm308 186q0 11-12 156t-14 146l-27-43q-16-27-63-107l-90-152 103-1q103 0 103 1z"/><path id="d" stroke-width="1" d="M231 637q-27 0-32 1t-5 11q0 27 11 33 1 1 130 1 259 0 273-2 63-10 105-45t43-92q0-64-58-115t-133-69l-10-3q64-9 105-46t42-92q0-73-72-141T453 1q-7-1-211-1Q42 0 39 2q-4 3-4 8 0 7 2 14 5 19 10 21 4 1 15 1h6q27 0 60 3 14 3 19 12 3 4 72 278t69 289q0 7-57 9zm418-93q0 30-15 56t-49 34q-7 2-92 3h-42q-22 0-35-1h-13q-15-1-19-10-2-4-32-120 0-3-1-6l-31-126h81q81 0 93 2 60 10 107 58t48 110zm-54-315q0 44-23 73t-60 34q-6 1-83 1-118 0-119-1 0-2-17-73t-35-141l-18-70q0-4 12-4t81-2q89 0 96 1 62 7 114 58t52 124z"/><path id="h" stroke-width="1" d="M33 157q0 101 76 192t171 92q51 0 90-49 16 30 46 30 13 0 23-8t10-20q0-13-37-160T374 68q0-25 7-33t21-9q9 1 20 9 21 20 41 96 6 20 10 21 2 1 10 1h4q19 0 19-9 0-6-5-27t-20-54-32-50Q436 0 417-8q-8-2-24-2-34 0-57 15t-30 31l-6 15q-1 1-4-1l-4-4q-59-56-120-56-55 0-97 40T33 157zm318 171q0 6-5 22t-23 35-46 20q-35 0-67-31t-50-81q-29-79-41-164v-11q0-8-1-12 0-45 18-62t43-18q38 0 75 33t44 51q2 4 27 107t26 111z"/><path id="i" stroke-width="1" d="M213 578l-13-5q-14-5-40-10t-58-7H83v46h19q47 2 87 15t56 24 28 22q2 3 12 3 9 0 17-6V361l1-300q7-7 12-9t24-4 62-2h26V0h-11q-21 3-159 3-136 0-157-3H88v46h64q16 0 25 1t16 3 8 2 6 5 6 4v517z"/><path id="j" stroke-width="1" d="M78 35v25l16 43 43 18q28 0 50-25t23-88q0-35-9-68t-21-57-26-41-24-27-13-9q-4 0-13 9t-9 13q0 4 11 16t25 30 26 50 16 73V9l-1-1q-2-1-5-2t-6-3-9-2-12-1q-27 0-44 17z"/><path id="k" stroke-width="1" d="M73 647q0 10 4 23t12 13q1 0 72 5t73 6q12 0 12-9t-34-143q-8-34-17-70t-15-54l-4-19q0-3 6 3 49 40 101 40 62 0 100-46t39-116q0-111-79-201T173-11q-50 0-91 38T40 150v9q0 21 8 58t49 197q50 197 50 209t-38 14H83q-3 0-7 3t-3 7zm263-322v6q0 74-61 74-17 0-35-8t-33-21-26-24-18-22l-6-8-21-86q-22-86-22-122 0-48 24-72 16-16 40-16 33 0 67 32 25 23 40 56t33 105q18 72 18 106z"/><path id="b" stroke-width="1" d="M56 347q0 13 14 20h637q15-8 15-20 0-11-14-19l-318-1H72q-16 5-16 20zm0-194q0 15 16 20h636q14-10 14-20 0-13-15-20H70q-14 7-14 20z"/><path id="m" stroke-width="1" d="M109 429q-27 0-43 18t-16 44q0 71 53 123t132 52q91 0 152-56t62-145q0-43-20-82t-48-68-80-74q-36-31-100-92l-59-56 76-1q157 0 167 5 7 2 24 89v3h40v-3q-1-3-13-91T421 3V0H50v31q0 7 6 15t30 35q29 32 50 56 9 10 34 37t34 37 29 33 28 34 23 30 21 32 15 29 13 32 7 30 3 33q0 63-34 109t-97 46q-33 0-58-17t-35-33-10-19q0-1 5-1 18 0 37-14t19-46q0-25-16-42t-45-18z"/><path id="n" stroke-width="1" d="M127 463q-27 0-42 17t-16 44q0 55 48 98t116 43q35 0 44-1 74-12 113-53t40-89q0-52-34-101t-94-71l-3-2q0-1 9-3t29-9 38-21q82-53 82-140 0-79-62-138T238-22q-80 0-138 43T42 130q0 28 18 45t45 18q28 0 46-18t18-45q0-11-3-20t-7-16-11-12-12-8-10-4-8-3l-4-1q51-45 124-45 55 0 83 53 17 33 17 101v20q0 95-64 127-15 6-61 7l-42 1-3 2q-2 3-2 16 0 18 8 18 28 0 58 5 34 5 62 42t28 112v8q0 57-35 79-22 14-47 14-32 0-59-11t-38-23-11-12h3q3-1 8-2t10-5 12-7 10-11 8-15 3-20q0-22-14-39t-45-18z"/><path id="e" stroke-width="1" d="M319-645v1799h347v-84H403V-645h-84z"/><path id="g" stroke-width="1" d="M319-644v1799h84V-560h263v-84H319z"/><path id="f" stroke-width="1" d="M319 0v602h84V0h-84z"/><path id="o" stroke-width="1" d="M0 1070v84h347V-645h-84v1715H0z"/><path id="q" stroke-width="1" d="M263-560v1715h84V-644H0v84h263z"/><path id="p" stroke-width="1" d="M263 0v602h84V0h-84z"/></defs><g fill="currentColor" stroke="currentColor" stroke-width="0" transform="scale(1 -1)"><use xlink:href="#a"/><use x="1038" xlink:href="#b"/><use x="2094" xlink:href="#c"/><use x="2845" xlink:href="#d"/><use x="3882" xlink:href="#b"/><g transform="translate(4938 2238)"><use y="-1155" xlink:href="#e"/><use transform="matrix(1 0 0 .78673 0 -2225.4)" xlink:href="#f"/><use y="-3333" xlink:href="#g"/></g><g transform="translate(5758 1438)"><use xlink:href="#h"/><g transform="matrix(.707 0 0 .707 529 -150)"><use xlink:href="#i"/><use x="500" xlink:href="#j"/><use x="779" xlink:href="#i"/></g><g transform="translate(1534)"><use xlink:href="#k"/><g transform="matrix(.707 0 0 .707 429 -150)"><use xlink:href="#i"/><use x="500" xlink:href="#j"/><use x="779" xlink:href="#i"/></g></g><use x="3190" xlink:href="#l"/><g transform="translate(4191)"><use xlink:href="#h"/><g transform="matrix(.707 0 0 .707 529 -150)"><use xlink:href="#i"/><use x="500" xlink:href="#j"/><use x="779" xlink:href="#m"/></g></g><g transform="translate(5725)"><use xlink:href="#k"/><g transform="matrix(.707 0 0 .707 429 -150)"><use xlink:href="#m"/><use x="500" xlink:href="#j"/><use x="779" xlink:href="#i"/></g></g><use x="7382" xlink:href="#l"/><g transform="translate(8382)"><use xlink:href="#h"/><g transform="matrix(.707 0 0 .707 529 -150)"><use xlink:href="#i"/><use x="500" xlink:href="#j"/><use x="779" xlink:href="#n"/></g></g><g transform="translate(9917)"><use xlink:href="#k"/><g transform="matrix(.707 0 0 .707 429 -150)"><use xlink:href="#n"/><use x="500" xlink:href="#j"/><use x="779" xlink:href="#i"/></g></g><use x="11351" xlink:href="#j"/><g transform="translate(12796)"><use xlink:href="#h"/><g transform="matrix(.707 0 0 .707 529 -150)"><use xlink:href="#i"/><use x="500" xlink:href="#j"/><use x="779" xlink:href="#i"/></g></g><g transform="translate(14330)"><use xlink:href="#k"/><g transform="matrix(.707 0 0 .707 429 -150)"><use xlink:href="#i"/><use x="500" xlink:href="#j"/><use x="779" xlink:href="#m"/></g></g><use x="15987" xlink:href="#l"/><g transform="translate(16987)"><use xlink:href="#h"/><g transform="matrix(.707 0 0 .707 529 -150)"><use xlink:href="#i"/><use x="500" xlink:href="#j"/><use x="779" xlink:href="#m"/></g></g><g transform="translate(18522)"><use xlink:href="#k"/><g transform="matrix(.707 0 0 .707 429 -150)"><use xlink:href="#m"/><use x="500" xlink:href="#j"/><use x="779" xlink:href="#m"/></g></g><use x="20178" xlink:href="#l"/><g transform="translate(21179)"><use xlink:href="#h"/><g transform="matrix(.707 0 0 .707 529 -150)"><use xlink:href="#i"/><use x="500" xlink:href="#j"/><use x="779" xlink:href="#n"/></g></g><g transform="translate(22713)"><use xlink:href="#k"/><g transform="matrix(.707 0 0 .707 429 -150)"><use xlink:href="#n"/><use x="500" xlink:href="#j"/><use x="779" xlink:href="#m"/></g></g></g><g transform="translate(5758 -1451)"><use xlink:href="#h"/><g transform="matrix(.707 0 0 .707 529 -150)"><use xlink:href="#m"/><use x="500" xlink:href="#j"/><use x="779" xlink:href="#i"/></g><g transform="translate(1534)"><use xlink:href="#k"/><g transform="matrix(.707 0 0 .707 429 -150)"><use xlink:href="#i"/><use x="500" xlink:href="#j"/><use x="779" xlink:href="#i"/></g></g><use x="3190" xlink:href="#l"/><g transform="translate(4191)"><use xlink:href="#h"/><g transform="matrix(.707 0 0 .707 529 -150)"><use xlink:href="#m"/><use x="500" xlink:href="#j"/><use x="779" xlink:href="#m"/></g></g><g transform="translate(5725)"><use xlink:href="#k"/><g transform="matrix(.707 0 0 .707 429 -150)"><use xlink:href="#m"/><use x="500" xlink:href="#j"/><use x="779" xlink:href="#i"/></g></g><use x="7382" xlink:href="#l"/><g transform="translate(8382)"><use xlink:href="#h"/><g transform="matrix(.707 0 0 .707 529 -150)"><use xlink:href="#m"/><use x="500" xlink:href="#j"/><use x="779" xlink:href="#n"/></g></g><g transform="translate(9917)"><use xlink:href="#k"/><g transform="matrix(.707 0 0 .707 429 -150)"><use xlink:href="#n"/><use x="500" xlink:href="#j"/><use x="779" xlink:href="#i"/></g></g><use x="11351" xlink:href="#j"/><g transform="translate(12796)"><use xlink:href="#h"/><g transform="matrix(.707 0 0 .707 529 -150)"><use xlink:href="#m"/><use x="500" xlink:href="#j"/><use x="779" xlink:href="#i"/></g></g><g transform="translate(14330)"><use xlink:href="#k"/><g transform="matrix(.707 0 0 .707 429 -150)"><use xlink:href="#i"/><use x="500" xlink:href="#j"/><use x="779" xlink:href="#m"/></g></g><use x="15987" xlink:href="#l"/><g transform="translate(16987)"><use xlink:href="#h"/><g transform="matrix(.707 0 0 .707 529 -150)"><use xlink:href="#m"/><use x="500" xlink:href="#j"/><use x="779" xlink:href="#m"/></g></g><g transform="translate(18522)"><use xlink:href="#k"/><g transform="matrix(.707 0 0 .707 429 -150)"><use xlink:href="#m"/><use x="500" xlink:href="#j"/><use x="779" xlink:href="#m"/></g></g><use x="20178" xlink:href="#l"/><g transform="translate(21179)"><use xlink:href="#h"/><g transform="matrix(.707 0 0 .707 529 -150)"><use xlink:href="#m"/><use x="500" xlink:href="#j"/><use x="779" xlink:href="#n"/></g></g><g transform="translate(22713)"><use xlink:href="#k"/><g transform="matrix(.707 0 0 .707 429 -150)"><use xlink:href="#n"/><use x="500" xlink:href="#j"/><use x="779" xlink:href="#m"/></g></g></g><g transform="translate(30073 2238)"><use y="-1155" xlink:href="#o"/><use transform="matrix(1 0 0 .78673 0 -2225.4)" xlink:href="#p"/><use y="-3333" xlink:href="#q"/></g></g></svg>